<svg width="1024" height="1024" viewBox="0 0 1024 1024" fill="none" xmlns="http://www.w3.org/2000/svg">
  <!-- Background Circle - White -->
  <circle cx="512" cy="512" r="512" fill="#FAFAFA"/>

  <!-- Outer Ring -->
  <circle cx="512" cy="512" r="420" stroke="url(#lightGradient1)" stroke-width="3" fill="none" opacity="0.4"/>

  <!-- Shield Shape -->
  <path d="M512 200 C400 200 340 260 340 320 L340 480 C340 640 420 760 512 824 C604 760 684 640 684 480 L684 320 C684 260 624 200 512 200 Z"
        fill="url(#lightGradient2)"
        opacity="0.95"/>

  <!-- Inner "I" -->
  <rect x="492" y="360" width="40" height="280" rx="20" fill="#FAFAFA"/>
  <circle cx="512" cy="300" r="25" fill="#FAFAFA"/>

  <!-- Accent dots -->
  <circle cx="420" cy="400" r="4" fill="#6D28D9" opacity="0.7"/>
  <circle cx="604" cy="400" r="4" fill="#6D28D9" opacity="0.7"/>
  <circle cx="420" cy="500" r="4" fill="#6D28D9" opacity="0.6"/>
  <circle cx="604" cy="500" r="4" fill="#6D28D9" opacity="0.6"/>
  <circle cx="420" cy="600" r="4" fill="#6D28D9" opacity="0.5"/>
  <circle cx="604" cy="600" r="4" fill="#6D28D9" opacity="0.5"/>

  <defs>
    <linearGradient id="lightGradient1" x1="0%" y1="0%" x2="100%" y2="100%">
      <stop offset="0%" style="stop-color:#8B5CF6;stop-opacity:1" />
      <stop offset="100%" style="stop-color:#6D28D9;stop-opacity:1" />
    </linearGradient>

    <linearGradient id="lightGradient2" x1="0%" y1="0%" x2="0%" y2="100%">
      <stop offset="0%" style="stop-color:#A78BFA;stop-opacity:1" />
      <stop offset="50%" style="stop-color:#8B5CF6;stop-opacity:1" />
      <stop offset="100%" style="stop-color:#6D28D9;stop-opacity:1" />
    </linearGradient>
  </defs>
</svg>
